<mxfile host="app.diagrams.net" agent="Mozilla/5.0 (Macintosh; Intel Mac OS X 10_15_7) AppleWebKit/537.36 (KHTML, like Gecko) Chrome/131.0.0.0 Safari/537.36" version="26.0.6">
  <diagram name="ページ1" id="jVeWRufz6RqbUdVA2EF2">
    <mxGraphModel dx="1381" dy="706" grid="1" gridSize="10" guides="1" tooltips="1" connect="1" arrows="1" fold="1" page="1" pageScale="1" pageWidth="827" pageHeight="1169" math="0" shadow="0">
      <root>
        <mxCell id="0" />
        <mxCell id="1" parent="0" />
        <mxCell id="M95qbr-i502lPLxrOfVr-2" value="VPC (ap-northeast-1)" style="points=[[0,0],[0.25,0],[0.5,0],[0.75,0],[1,0],[1,0.25],[1,0.5],[1,0.75],[1,1],[0.75,1],[0.5,1],[0.25,1],[0,1],[0,0.75],[0,0.5],[0,0.25]];outlineConnect=0;gradientColor=none;html=1;whiteSpace=wrap;fontSize=12;fontStyle=0;container=1;pointerEvents=0;collapsible=0;recursiveResize=0;shape=mxgraph.aws4.group;grIcon=mxgraph.aws4.group_vpc2;strokeColor=#8C4FFF;fillColor=none;verticalAlign=top;align=left;spacingLeft=30;fontColor=#AAB7B8;dashed=0;" parent="1" vertex="1">
          <mxGeometry x="200" y="320" width="440" height="300" as="geometry" />
        </mxCell>
        <mxCell id="M95qbr-i502lPLxrOfVr-9" value="Public subnet" style="points=[[0,0],[0.25,0],[0.5,0],[0.75,0],[1,0],[1,0.25],[1,0.5],[1,0.75],[1,1],[0.75,1],[0.5,1],[0.25,1],[0,1],[0,0.75],[0,0.5],[0,0.25]];outlineConnect=0;gradientColor=none;html=1;whiteSpace=wrap;fontSize=12;fontStyle=0;container=1;pointerEvents=0;collapsible=0;recursiveResize=0;shape=mxgraph.aws4.group;grIcon=mxgraph.aws4.group_security_group;grStroke=0;strokeColor=#7AA116;fillColor=#F2F6E8;verticalAlign=top;align=left;spacingLeft=30;fontColor=#248814;dashed=0;" parent="M95qbr-i502lPLxrOfVr-2" vertex="1">
          <mxGeometry x="50" y="64.5" width="180" height="75.5" as="geometry" />
        </mxCell>
        <mxCell id="M95qbr-i502lPLxrOfVr-28" value="" style="rounded=1;arcSize=10;dashed=1;strokeColor=#ff0000;fillColor=none;gradientColor=none;dashPattern=8 4;strokeWidth=2;" parent="M95qbr-i502lPLxrOfVr-2" vertex="1">
          <mxGeometry x="50" y="64.5" width="180" height="95.5" as="geometry" />
        </mxCell>
        <mxCell id="M95qbr-i502lPLxrOfVr-6" value="Availability Zone(ap-northeast-1a)" style="fillColor=none;strokeColor=#147EBA;dashed=1;verticalAlign=top;fontStyle=0;fontColor=#147EBA;whiteSpace=wrap;html=1;" parent="M95qbr-i502lPLxrOfVr-2" vertex="1">
          <mxGeometry x="30" y="40" width="400" height="120" as="geometry" />
        </mxCell>
        <mxCell id="M95qbr-i502lPLxrOfVr-11" value="Private subnet" style="points=[[0,0],[0.25,0],[0.5,0],[0.75,0],[1,0],[1,0.25],[1,0.5],[1,0.75],[1,1],[0.75,1],[0.5,1],[0.25,1],[0,1],[0,0.75],[0,0.5],[0,0.25]];outlineConnect=0;gradientColor=none;html=1;whiteSpace=wrap;fontSize=12;fontStyle=0;container=1;pointerEvents=0;collapsible=0;recursiveResize=0;shape=mxgraph.aws4.group;grIcon=mxgraph.aws4.group_security_group;grStroke=0;strokeColor=#00A4A6;fillColor=#E6F6F7;verticalAlign=top;align=left;spacingLeft=30;fontColor=#147EBA;dashed=0;" parent="M95qbr-i502lPLxrOfVr-2" vertex="1">
          <mxGeometry x="240" y="64.5" width="180" height="75.5" as="geometry" />
        </mxCell>
        <mxCell id="M95qbr-i502lPLxrOfVr-12" value="Availability Zone(ap-northeast-1c)" style="fillColor=none;strokeColor=#147EBA;dashed=1;verticalAlign=top;fontStyle=0;fontColor=#147EBA;whiteSpace=wrap;html=1;" parent="M95qbr-i502lPLxrOfVr-2" vertex="1">
          <mxGeometry x="30" y="170" width="400" height="120" as="geometry" />
        </mxCell>
        <mxCell id="M95qbr-i502lPLxrOfVr-14" value="Private subnet" style="points=[[0,0],[0.25,0],[0.5,0],[0.75,0],[1,0],[1,0.25],[1,0.5],[1,0.75],[1,1],[0.75,1],[0.5,1],[0.25,1],[0,1],[0,0.75],[0,0.5],[0,0.25]];outlineConnect=0;gradientColor=none;html=1;whiteSpace=wrap;fontSize=12;fontStyle=0;container=1;pointerEvents=0;collapsible=0;recursiveResize=0;shape=mxgraph.aws4.group;grIcon=mxgraph.aws4.group_security_group;grStroke=0;strokeColor=#00A4A6;fillColor=#E6F6F7;verticalAlign=top;align=left;spacingLeft=30;fontColor=#147EBA;dashed=0;" parent="M95qbr-i502lPLxrOfVr-2" vertex="1">
          <mxGeometry x="240" y="195" width="180" height="75.5" as="geometry" />
        </mxCell>
        <mxCell id="M95qbr-i502lPLxrOfVr-17" value="" style="sketch=0;points=[[0,0,0],[0.25,0,0],[0.5,0,0],[0.75,0,0],[1,0,0],[0,1,0],[0.25,1,0],[0.5,1,0],[0.75,1,0],[1,1,0],[0,0.25,0],[0,0.5,0],[0,0.75,0],[1,0.25,0],[1,0.5,0],[1,0.75,0]];outlineConnect=0;fontColor=#232F3E;fillColor=#C925D1;strokeColor=#ffffff;dashed=0;verticalLabelPosition=bottom;verticalAlign=top;align=center;html=1;fontSize=12;fontStyle=0;aspect=fixed;shape=mxgraph.aws4.resourceIcon;resIcon=mxgraph.aws4.rds;" parent="M95qbr-i502lPLxrOfVr-14" vertex="1">
          <mxGeometry x="71" y="30" width="38" height="38" as="geometry" />
        </mxCell>
        <mxCell id="M95qbr-i502lPLxrOfVr-23" value="" style="edgeStyle=orthogonalEdgeStyle;rounded=0;orthogonalLoop=1;jettySize=auto;html=1;" parent="M95qbr-i502lPLxrOfVr-2" source="M95qbr-i502lPLxrOfVr-15" target="M95qbr-i502lPLxrOfVr-20" edge="1">
          <mxGeometry relative="1" as="geometry" />
        </mxCell>
        <mxCell id="M95qbr-i502lPLxrOfVr-15" value="" style="sketch=0;points=[[0,0,0],[0.25,0,0],[0.5,0,0],[0.75,0,0],[1,0,0],[0,1,0],[0.25,1,0],[0.5,1,0],[0.75,1,0],[1,1,0],[0,0.25,0],[0,0.5,0],[0,0.75,0],[1,0.25,0],[1,0.5,0],[1,0.75,0]];outlineConnect=0;fontColor=#232F3E;fillColor=#ED7100;strokeColor=#ffffff;dashed=0;verticalLabelPosition=bottom;verticalAlign=top;align=center;html=1;fontSize=12;fontStyle=0;aspect=fixed;shape=mxgraph.aws4.resourceIcon;resIcon=mxgraph.aws4.ec2;" parent="M95qbr-i502lPLxrOfVr-2" vertex="1">
          <mxGeometry x="130" y="92" width="38" height="38" as="geometry" />
        </mxCell>
        <mxCell id="M95qbr-i502lPLxrOfVr-16" value="" style="sketch=0;points=[[0,0,0],[0.25,0,0],[0.5,0,0],[0.75,0,0],[1,0,0],[0,1,0],[0.25,1,0],[0.5,1,0],[0.75,1,0],[1,1,0],[0,0.25,0],[0,0.5,0],[0,0.75,0],[1,0.25,0],[1,0.5,0],[1,0.75,0]];outlineConnect=0;fontColor=#232F3E;fillColor=#C925D1;strokeColor=#ffffff;dashed=0;verticalLabelPosition=bottom;verticalAlign=top;align=center;html=1;fontSize=12;fontStyle=0;aspect=fixed;shape=mxgraph.aws4.resourceIcon;resIcon=mxgraph.aws4.rds;" parent="M95qbr-i502lPLxrOfVr-2" vertex="1">
          <mxGeometry x="311" y="92" width="38" height="38" as="geometry" />
        </mxCell>
        <mxCell id="M95qbr-i502lPLxrOfVr-19" value="&lt;font size=&quot;1&quot;&gt;EC2&lt;/font&gt;" style="text;html=1;align=center;verticalAlign=middle;resizable=0;points=[];autosize=1;strokeColor=none;fillColor=none;" parent="M95qbr-i502lPLxrOfVr-2" vertex="1">
          <mxGeometry x="128" y="134" width="40" height="30" as="geometry" />
        </mxCell>
        <mxCell id="M95qbr-i502lPLxrOfVr-20" value="&lt;font size=&quot;1&quot;&gt;RDS（master）&lt;/font&gt;" style="text;html=1;align=center;verticalAlign=middle;resizable=0;points=[];autosize=1;strokeColor=none;fillColor=none;" parent="M95qbr-i502lPLxrOfVr-2" vertex="1">
          <mxGeometry x="280" y="134" width="100" height="30" as="geometry" />
        </mxCell>
        <mxCell id="M95qbr-i502lPLxrOfVr-21" value="&lt;font size=&quot;1&quot;&gt;RDS（standby）&lt;/font&gt;" style="text;html=1;align=center;verticalAlign=middle;resizable=0;points=[];autosize=1;strokeColor=none;fillColor=none;" parent="M95qbr-i502lPLxrOfVr-2" vertex="1">
          <mxGeometry x="280" y="265" width="100" height="30" as="geometry" />
        </mxCell>
        <mxCell id="M95qbr-i502lPLxrOfVr-22" value="" style="endArrow=none;dashed=1;html=1;dashPattern=1 3;strokeWidth=2;rounded=0;entryX=0.5;entryY=1;entryDx=0;entryDy=0;entryPerimeter=0;" parent="M95qbr-i502lPLxrOfVr-2" target="M95qbr-i502lPLxrOfVr-16" edge="1">
          <mxGeometry width="50" height="50" relative="1" as="geometry">
            <mxPoint x="330" y="230" as="sourcePoint" />
            <mxPoint x="270" y="80" as="targetPoint" />
          </mxGeometry>
        </mxCell>
        <mxCell id="M95qbr-i502lPLxrOfVr-25" value="10.0.1.0/24" style="text;html=1;align=center;verticalAlign=middle;resizable=0;points=[];autosize=1;strokeColor=none;fillColor=none;" parent="M95qbr-i502lPLxrOfVr-2" vertex="1">
          <mxGeometry x="150" y="64.5" width="80" height="30" as="geometry" />
        </mxCell>
        <mxCell id="M95qbr-i502lPLxrOfVr-26" value="10.0.2.0/24" style="text;html=1;align=center;verticalAlign=middle;resizable=0;points=[];autosize=1;strokeColor=none;fillColor=none;" parent="M95qbr-i502lPLxrOfVr-2" vertex="1">
          <mxGeometry x="340" y="64.5" width="80" height="30" as="geometry" />
        </mxCell>
        <mxCell id="M95qbr-i502lPLxrOfVr-27" value="10.0.3.0/24" style="text;html=1;align=center;verticalAlign=middle;resizable=0;points=[];autosize=1;strokeColor=none;fillColor=none;" parent="M95qbr-i502lPLxrOfVr-2" vertex="1">
          <mxGeometry x="340" y="195" width="80" height="30" as="geometry" />
        </mxCell>
        <mxCell id="M95qbr-i502lPLxrOfVr-30" value="" style="dashed=0;outlineConnect=0;html=1;align=center;labelPosition=center;verticalLabelPosition=bottom;verticalAlign=top;shape=mxgraph.weblogos.wordpress;fillColor=#00A7DA;strokeColor=none" parent="M95qbr-i502lPLxrOfVr-2" vertex="1">
          <mxGeometry x="172" y="116" width="20.37" height="20" as="geometry" />
        </mxCell>
        <mxCell id="M95qbr-i502lPLxrOfVr-29" value="" style="rounded=1;arcSize=10;dashed=1;strokeColor=#ff0000;fillColor=none;gradientColor=none;dashPattern=8 4;strokeWidth=2;" parent="M95qbr-i502lPLxrOfVr-2" vertex="1">
          <mxGeometry x="240" y="63.25" width="180" height="226.75" as="geometry" />
        </mxCell>
        <mxCell id="M95qbr-i502lPLxrOfVr-1" value="AWS Cloud" style="points=[[0,0],[0.25,0],[0.5,0],[0.75,0],[1,0],[1,0.25],[1,0.5],[1,0.75],[1,1],[0.75,1],[0.5,1],[0.25,1],[0,1],[0,0.75],[0,0.5],[0,0.25]];outlineConnect=0;gradientColor=none;html=1;whiteSpace=wrap;fontSize=12;fontStyle=0;container=1;pointerEvents=0;collapsible=0;recursiveResize=0;shape=mxgraph.aws4.group;grIcon=mxgraph.aws4.group_aws_cloud;strokeColor=#232F3E;fillColor=none;verticalAlign=top;align=left;spacingLeft=30;fontColor=#232F3E;dashed=0;" parent="1" vertex="1">
          <mxGeometry x="160" y="280" width="540" height="360" as="geometry" />
        </mxCell>
        <mxCell id="M95qbr-i502lPLxrOfVr-3" value="" style="sketch=0;outlineConnect=0;fontColor=#232F3E;gradientColor=none;fillColor=#8C4FFF;strokeColor=none;dashed=0;verticalLabelPosition=bottom;verticalAlign=top;align=center;html=1;fontSize=12;fontStyle=0;aspect=fixed;pointerEvents=1;shape=mxgraph.aws4.internet_gateway;" parent="M95qbr-i502lPLxrOfVr-1" vertex="1">
          <mxGeometry x="-20" y="160" width="40" height="40" as="geometry" />
        </mxCell>
        <mxCell id="M95qbr-i502lPLxrOfVr-24" value="10.0.0.0/16" style="text;html=1;align=center;verticalAlign=middle;resizable=0;points=[];autosize=1;strokeColor=none;fillColor=none;" parent="M95qbr-i502lPLxrOfVr-1" vertex="1">
          <mxGeometry x="460" width="80" height="30" as="geometry" />
        </mxCell>
        <mxCell id="M95qbr-i502lPLxrOfVr-5" value="" style="edgeStyle=orthogonalEdgeStyle;rounded=0;orthogonalLoop=1;jettySize=auto;html=1;entryX=0;entryY=0.75;entryDx=0;entryDy=0;entryPerimeter=0;" parent="1" source="M95qbr-i502lPLxrOfVr-4" target="M95qbr-i502lPLxrOfVr-15" edge="1">
          <mxGeometry relative="1" as="geometry">
            <Array as="points">
              <mxPoint x="210" y="460" />
              <mxPoint x="210" y="440" />
            </Array>
          </mxGeometry>
        </mxCell>
        <mxCell id="M95qbr-i502lPLxrOfVr-4" value="" style="shape=mxgraph.signs.tech.computer;html=1;pointerEvents=1;fillColor=#000000;strokeColor=none;verticalLabelPosition=bottom;verticalAlign=top;align=center;" parent="1" vertex="1">
          <mxGeometry x="20" y="435.5" width="50" height="49" as="geometry" />
        </mxCell>
        <mxCell id="M95qbr-i502lPLxrOfVr-18" value="&lt;font style=&quot;font-size: 9px;&quot;&gt;インターネット&lt;/font&gt;&lt;div&gt;&lt;font style=&quot;font-size: 9px;&quot;&gt;ゲートウェイ&lt;/font&gt;&lt;/div&gt;" style="text;html=1;align=center;verticalAlign=middle;resizable=0;points=[];autosize=1;strokeColor=none;fillColor=none;" parent="1" vertex="1">
          <mxGeometry x="115" y="480" width="90" height="40" as="geometry" />
        </mxCell>
      </root>
    </mxGraphModel>
  </diagram>
</mxfile>
